<svg width="86" height="30" viewBox="0 0 86 30" fill="none" xmlns="http://www.w3.org/2000/svg">
<path d="M86 3C86 1.34315 84.6569 0 83 0H3C1.34315 0 0 1.34315 0 3V27C0 28.6569 1.34315 30 3 30H83C84.6569 30 86 28.6569 86 27V3Z" fill="#025E3E"/>
<path d="M34 0H32V30H34V0Z" fill="black" fill-opacity="0.1"/>
<path d="M21.5452 10.0117C20.5077 9.53556 19.4129 9.19574 18.2882 9.00069C18.278 8.99898 18.2675 9.00046 18.2582 9.00494C18.2489 9.00941 18.2412 9.01667 18.2362 9.02569C18.0952 9.27569 17.9392 9.60269 17.8302 9.85869C16.6178 9.6747 15.3846 9.6747 14.1722 9.85869C14.0506 9.57351 13.913 9.29541 13.7602 9.02569C13.755 9.01676 13.7473 9.0096 13.738 9.00513C13.7288 9.00067 13.7183 8.99912 13.7082 9.00069C12.5832 9.19469 11.4882 9.53469 10.4512 10.0117C10.4423 10.0151 10.4349 10.0214 10.4302 10.0297C8.35617 13.1287 7.78717 16.1517 8.06617 19.1367C8.06717 19.1507 8.07617 19.1647 8.08717 19.1737C9.29489 20.0683 10.6458 20.7514 12.0822 21.1937C12.0923 21.1969 12.1032 21.1968 12.1133 21.1934C12.1233 21.1899 12.1321 21.1834 12.1382 21.1747C12.4462 20.7547 12.7202 20.3117 12.9562 19.8457C12.9611 19.8361 12.9628 19.8252 12.961 19.8145C12.9592 19.8039 12.954 19.7941 12.9462 19.7867C12.941 19.7818 12.9349 19.7781 12.9282 19.7757C12.4973 19.6101 12.0801 19.4112 11.6802 19.1807C11.669 19.1744 11.6607 19.164 11.657 19.1517C11.6532 19.1394 11.6544 19.1262 11.6602 19.1147C11.6636 19.1072 11.6687 19.1007 11.6752 19.0957C11.7592 19.0327 11.8432 18.9667 11.9232 18.9007C11.9302 18.895 11.9387 18.8914 11.9477 18.8901C11.9567 18.8889 11.9658 18.8901 11.9742 18.8937C14.5932 20.0897 17.4282 20.0897 20.0152 18.8937C20.0238 18.89 20.0333 18.8886 20.0426 18.8899C20.052 18.8911 20.0608 18.8948 20.0682 18.9007C20.1482 18.9667 20.2322 19.0327 20.3162 19.0957C20.323 19.1007 20.3284 19.1073 20.3321 19.1149C20.3357 19.1225 20.3374 19.1308 20.337 19.1393C20.3366 19.1477 20.3341 19.1559 20.3298 19.1631C20.3255 19.1703 20.3194 19.1764 20.3122 19.1807C19.9132 19.4133 19.4954 19.612 19.0632 19.7747C19.0563 19.7772 19.05 19.7812 19.0448 19.7864C19.0396 19.7915 19.0357 19.7978 19.0332 19.8047C19.0309 19.8114 19.0299 19.8185 19.0304 19.8255C19.031 19.8326 19.0329 19.8394 19.0362 19.8457C19.2762 20.3107 19.5512 20.7547 19.8532 21.1747C19.8593 21.1834 19.868 21.1899 19.8781 21.1934C19.8881 21.1968 19.899 21.1969 19.9092 21.1937C21.348 20.7527 22.701 20.0696 23.9102 19.1737C23.9162 19.1695 23.9213 19.164 23.9249 19.1576C23.9285 19.1512 23.9307 19.144 23.9312 19.1367C24.2652 15.6857 23.3722 12.6877 21.5652 10.0307C21.5633 10.0263 21.5606 10.0223 21.5572 10.0191C21.5537 10.0158 21.5496 10.0133 21.5452 10.0117ZM13.3472 17.3187C12.5582 17.3187 11.9092 16.5947 11.9092 15.7067C11.9092 14.8177 12.5462 14.0937 13.3472 14.0937C14.1542 14.0937 14.7972 14.8237 14.7852 15.7067C14.7852 16.5947 14.1482 17.3187 13.3472 17.3187ZM18.6632 17.3187C17.8752 17.3187 17.2252 16.5947 17.2252 15.7067C17.2252 14.8177 17.8622 14.0937 18.6632 14.0937C19.4702 14.0937 20.1142 14.8237 20.1012 15.7067C20.1012 16.5947 19.4702 17.3187 18.6632 17.3187Z" fill="white"/>
<path d="M43.3057 19H41.6729L41.6836 18.1567H43.3057C43.8643 18.1567 44.3298 18.0404 44.7021 17.8076C45.0745 17.5713 45.3538 17.2419 45.54 16.8193C45.7298 16.3932 45.8247 15.8955 45.8247 15.3262V14.8481C45.8247 14.4006 45.771 14.0031 45.6636 13.6558C45.5562 13.3049 45.3986 13.0094 45.1909 12.7695C44.9832 12.526 44.729 12.3416 44.4282 12.2163C44.131 12.091 43.7891 12.0283 43.4023 12.0283H41.6406V11.1797H43.4023C43.9144 11.1797 44.3817 11.2656 44.8042 11.4375C45.2267 11.6058 45.5902 11.8511 45.8945 12.1733C46.2025 12.492 46.4388 12.8787 46.6035 13.3335C46.7682 13.7847 46.8506 14.2931 46.8506 14.8589V15.3262C46.8506 15.8919 46.7682 16.4022 46.6035 16.8569C46.4388 17.3081 46.2007 17.693 45.8892 18.0117C45.5812 18.3304 45.2088 18.5757 44.772 18.7476C44.3387 18.9159 43.8499 19 43.3057 19ZM42.2261 11.1797V19H41.1895V11.1797H42.2261Z" fill="white"/>
<path d="M49.3374 13.1885V19H48.3384V13.1885H49.3374ZM48.2632 11.647C48.2632 11.4858 48.3115 11.3498 48.4082 11.2388C48.5085 11.1278 48.6553 11.0723 48.8486 11.0723C49.0384 11.0723 49.1834 11.1278 49.2837 11.2388C49.3875 11.3498 49.4395 11.4858 49.4395 11.647C49.4395 11.8009 49.3875 11.9334 49.2837 12.0444C49.1834 12.1519 49.0384 12.2056 48.8486 12.2056C48.6553 12.2056 48.5085 12.1519 48.4082 12.0444C48.3115 11.9334 48.2632 11.8009 48.2632 11.647Z" fill="white"/>
<path d="M54.3164 17.4585C54.3164 17.3153 54.2842 17.1828 54.2197 17.061C54.1589 16.9357 54.0317 16.8229 53.8384 16.7227C53.6486 16.6188 53.3621 16.5293 52.979 16.4541C52.6567 16.3861 52.3649 16.3055 52.1035 16.2124C51.8457 16.1193 51.6255 16.0065 51.4429 15.874C51.2638 15.7415 51.126 15.5858 51.0293 15.4067C50.9326 15.2277 50.8843 15.0182 50.8843 14.7783C50.8843 14.5492 50.9344 14.3325 51.0347 14.1284C51.1385 13.9243 51.2835 13.7435 51.4697 13.5859C51.6595 13.4284 51.8869 13.3049 52.1519 13.2153C52.4168 13.1258 52.7122 13.0811 53.0381 13.0811C53.5036 13.0811 53.901 13.1634 54.2305 13.3281C54.5599 13.4928 54.8123 13.7131 54.9878 13.9888C55.1632 14.2609 55.251 14.5635 55.251 14.8965H54.2573C54.2573 14.7354 54.209 14.5796 54.1123 14.4292C54.0192 14.2752 53.8813 14.1481 53.6987 14.0479C53.5197 13.9476 53.2995 13.8975 53.0381 13.8975C52.7624 13.8975 52.5386 13.9404 52.3667 14.0264C52.1984 14.1087 52.0749 14.2144 51.9961 14.3433C51.9209 14.4722 51.8833 14.6082 51.8833 14.7515C51.8833 14.8589 51.9012 14.9556 51.937 15.0415C51.9764 15.1239 52.0444 15.2008 52.1411 15.2725C52.2378 15.3405 52.3739 15.4049 52.5493 15.4658C52.7248 15.5267 52.9486 15.5876 53.2207 15.6484C53.6969 15.7559 54.089 15.8848 54.397 16.0352C54.7049 16.1855 54.9341 16.37 55.0845 16.5884C55.2349 16.8068 55.3101 17.0718 55.3101 17.3833C55.3101 17.6375 55.2563 17.8703 55.1489 18.0815C55.0451 18.2928 54.8929 18.4754 54.6924 18.6294C54.4954 18.7798 54.2591 18.8979 53.9834 18.9839C53.7113 19.0662 53.4051 19.1074 53.0649 19.1074C52.5529 19.1074 52.1196 19.0161 51.7651 18.8335C51.4106 18.6509 51.1421 18.4146 50.9595 18.1245C50.7769 17.8345 50.6855 17.5283 50.6855 17.2061H51.6846C51.6989 17.4782 51.7777 17.6948 51.9209 17.856C52.0641 18.0135 52.2396 18.1263 52.4473 18.1943C52.6549 18.2588 52.8608 18.291 53.0649 18.291C53.3371 18.291 53.5645 18.2552 53.7471 18.1836C53.9333 18.112 54.0747 18.0135 54.1714 17.8882C54.2681 17.7629 54.3164 17.6196 54.3164 17.4585Z" fill="white"/>
<path d="M58.9409 18.291C59.1772 18.291 59.3957 18.2427 59.5962 18.146C59.7967 18.0493 59.9614 17.9168 60.0903 17.7485C60.2192 17.5767 60.2926 17.3815 60.3105 17.1631H61.2559C61.238 17.5068 61.1216 17.8273 60.9067 18.1245C60.6955 18.4181 60.418 18.6562 60.0742 18.8389C59.7305 19.0179 59.3527 19.1074 58.9409 19.1074C58.5041 19.1074 58.1227 19.0304 57.7969 18.8765C57.4746 18.7225 57.2061 18.5112 56.9912 18.2427C56.7799 17.9741 56.6206 17.6662 56.5132 17.3188C56.4093 16.9679 56.3574 16.5973 56.3574 16.207V15.9814C56.3574 15.5911 56.4093 15.2223 56.5132 14.875C56.6206 14.5241 56.7799 14.2144 56.9912 13.9458C57.2061 13.6772 57.4746 13.466 57.7969 13.312C58.1227 13.158 58.5041 13.0811 58.9409 13.0811C59.3957 13.0811 59.7931 13.1742 60.1333 13.3604C60.4735 13.543 60.7402 13.7936 60.9336 14.1123C61.1305 14.4274 61.238 14.7855 61.2559 15.1865H60.3105C60.2926 14.9466 60.2246 14.73 60.1064 14.5366C59.9919 14.3433 59.8343 14.1893 59.6338 14.0747C59.4368 13.9565 59.2059 13.8975 58.9409 13.8975C58.6366 13.8975 58.3805 13.9583 58.1729 14.0801C57.9688 14.1982 57.8058 14.3594 57.6841 14.5635C57.5659 14.764 57.48 14.9878 57.4263 15.2349C57.3761 15.4784 57.3511 15.7272 57.3511 15.9814V16.207C57.3511 16.4613 57.3761 16.7119 57.4263 16.959C57.4764 17.2061 57.5605 17.4299 57.6787 17.6304C57.8005 17.8309 57.9634 17.992 58.1675 18.1138C58.3752 18.2319 58.633 18.291 58.9409 18.291Z" fill="white"/>
<path d="M62.1099 16.1587V16.0352C62.1099 15.6162 62.1707 15.2277 62.2925 14.8696C62.4142 14.508 62.5897 14.1947 62.8188 13.9297C63.048 13.6611 63.3255 13.4535 63.6514 13.3066C63.9772 13.1562 64.3424 13.0811 64.7471 13.0811C65.1553 13.0811 65.5223 13.1562 65.8481 13.3066C66.1776 13.4535 66.4569 13.6611 66.686 13.9297C66.9188 14.1947 67.096 14.508 67.2178 14.8696C67.3395 15.2277 67.4004 15.6162 67.4004 16.0352V16.1587C67.4004 16.5776 67.3395 16.9661 67.2178 17.3242C67.096 17.6823 66.9188 17.9956 66.686 18.2642C66.4569 18.5291 66.1794 18.7368 65.8535 18.8872C65.5312 19.034 65.166 19.1074 64.7578 19.1074C64.3496 19.1074 63.9826 19.034 63.6567 18.8872C63.3309 18.7368 63.0516 18.5291 62.8188 18.2642C62.5897 17.9956 62.4142 17.6823 62.2925 17.3242C62.1707 16.9661 62.1099 16.5776 62.1099 16.1587ZM63.1035 16.0352V16.1587C63.1035 16.4487 63.1375 16.7227 63.2056 16.9805C63.2736 17.2347 63.3757 17.4603 63.5117 17.6572C63.6514 17.8542 63.825 18.0099 64.0327 18.1245C64.2404 18.2355 64.4821 18.291 64.7578 18.291C65.0299 18.291 65.2681 18.2355 65.4722 18.1245C65.6799 18.0099 65.8517 17.8542 65.9878 17.6572C66.1239 17.4603 66.2259 17.2347 66.2939 16.9805C66.3656 16.7227 66.4014 16.4487 66.4014 16.1587V16.0352C66.4014 15.7487 66.3656 15.4784 66.2939 15.2241C66.2259 14.9663 66.1221 14.7389 65.9824 14.542C65.8464 14.3415 65.6745 14.1839 65.4668 14.0693C65.2627 13.9548 65.0228 13.8975 64.7471 13.8975C64.4749 13.8975 64.235 13.9548 64.0273 14.0693C63.8232 14.1839 63.6514 14.3415 63.5117 14.542C63.3757 14.7389 63.2736 14.9663 63.2056 15.2241C63.1375 15.4784 63.1035 15.7487 63.1035 16.0352Z" fill="white"/>
<path d="M69.6401 14.1016V19H68.6465V13.1885H69.6133L69.6401 14.1016ZM71.4556 13.1562L71.4502 14.0801C71.3678 14.0622 71.2891 14.0514 71.2139 14.0479C71.1423 14.0407 71.0599 14.0371 70.9668 14.0371C70.7376 14.0371 70.5353 14.0729 70.3599 14.1445C70.1844 14.2161 70.0358 14.3164 69.9141 14.4453C69.7923 14.5742 69.6956 14.7282 69.624 14.9072C69.556 15.0827 69.5112 15.276 69.4897 15.4873L69.2104 15.6484C69.2104 15.2975 69.2445 14.9681 69.3125 14.6602C69.3841 14.3522 69.4933 14.0801 69.6401 13.8438C69.7869 13.6038 69.9731 13.4176 70.1987 13.2852C70.4279 13.1491 70.7 13.0811 71.0151 13.0811C71.0868 13.0811 71.1691 13.09 71.2622 13.1079C71.3553 13.1222 71.4198 13.1383 71.4556 13.1562Z" fill="white"/>
<path d="M75.9297 17.8721V10.75H76.9287V19H76.0156L75.9297 17.8721ZM72.0195 16.1587V16.0459C72.0195 15.6019 72.0732 15.1991 72.1807 14.8374C72.2917 14.4722 72.4474 14.1589 72.6479 13.8975C72.8521 13.6361 73.0938 13.4355 73.373 13.2959C73.6559 13.1527 73.971 13.0811 74.3184 13.0811C74.6836 13.0811 75.0023 13.1455 75.2744 13.2744C75.5501 13.3997 75.7829 13.5841 75.9727 13.8276C76.166 14.0675 76.3182 14.3576 76.4292 14.6978C76.5402 15.0379 76.6172 15.4229 76.6602 15.8525V16.3467C76.6208 16.7728 76.5438 17.1559 76.4292 17.4961C76.3182 17.8363 76.166 18.1263 75.9727 18.3662C75.7829 18.6061 75.5501 18.7905 75.2744 18.9194C74.9987 19.0448 74.6764 19.1074 74.3076 19.1074C73.9674 19.1074 73.6559 19.034 73.373 18.8872C73.0938 18.7404 72.8521 18.5345 72.6479 18.2695C72.4474 18.0046 72.2917 17.693 72.1807 17.335C72.0732 16.9733 72.0195 16.5812 72.0195 16.1587ZM73.0186 16.0459V16.1587C73.0186 16.4487 73.0472 16.7209 73.1045 16.9751C73.1654 17.2293 73.2585 17.4531 73.3838 17.6465C73.5091 17.8398 73.6685 17.992 73.8618 18.103C74.0552 18.2104 74.2861 18.2642 74.5547 18.2642C74.8841 18.2642 75.1545 18.1943 75.3657 18.0547C75.5806 17.915 75.7524 17.7306 75.8813 17.5015C76.0103 17.2723 76.1105 17.0234 76.1821 16.7549V15.4604C76.1392 15.2635 76.0765 15.0737 75.9941 14.8911C75.9154 14.7049 75.8115 14.5402 75.6826 14.397C75.5573 14.2502 75.4015 14.1338 75.2153 14.0479C75.0327 13.9619 74.8161 13.9189 74.5654 13.9189C74.2933 13.9189 74.0588 13.9762 73.8618 14.0908C73.6685 14.2018 73.5091 14.3558 73.3838 14.5527C73.2585 14.7461 73.1654 14.9717 73.1045 15.2295C73.0472 15.4837 73.0186 15.7559 73.0186 16.0459Z" fill="white"/>
</svg>
