<svg width="64" height="30" viewBox="0 0 64 30" fill="none" xmlns="http://www.w3.org/2000/svg">
<path d="M64 3C64 1.34315 62.6569 0 61 0H3C1.34315 0 0 1.34315 0 3V27C0 28.6569 1.34315 30 3 30H61C62.6569 30 64 28.6569 64 27V3Z" fill="#025E3E"/>
<path d="M34 0H32V30H34V0Z" fill="black" fill-opacity="0.1"/>
<path d="M14.5014 8.00964H14.499C14.4474 8.02034 14.396 8.03158 14.3447 8.04336L14.2925 8.053C14.2584 8.06084 14.2244 8.06887 14.1904 8.07709L14.1405 8.08913C13.6809 8.19889 13.2302 8.34384 12.7922 8.52276L12.7637 8.53721L15.4367 17.5301L15.5482 17.3976L15.8473 17.0411L14.5014 8.00964ZM18.0574 8L17.0841 15.5764L17.8722 14.6417L18.0289 14.8946L19.776 8.5083L19.7333 8.49144C19.2299 8.28856 18.7095 8.13215 18.1784 8.02409C18.1444 8.01667 18.1104 8.00945 18.0763 8.00241L18.0574 8ZM9.67063 10.6258C9.41341 10.8842 9.17314 11.1595 8.95136 11.4497C8.80166 11.6434 8.65913 11.8427 8.52407 12.0472V12.052L13.6325 17.7156L14.0171 17.2049L14.0361 17.2145L9.67063 10.6258ZM22.8335 10.5198L19.0567 16.5665L19.4864 17.2651L24.0584 12.0134C23.8497 11.6912 23.6197 11.3837 23.37 11.0932C23.1992 10.8945 23.0202 10.7032 22.8335 10.5198ZM7.17099 15.3909C7.05491 15.9891 6.99766 16.5976 7.00007 17.2073L12.4456 19.2839L12.8705 18.7226L7.17099 15.3909ZM25.4661 15.5523L20.2793 18.5612L20.6876 19.2237L25.6014 17.4048V17.3808C25.6029 17.3278 25.6037 17.2748 25.6037 17.2218V17.1158V17.0628V17.029V16.976L25.6014 16.9254V16.8724L25.599 16.8194L25.5966 16.7665L25.5943 16.7135L25.5919 16.6605L25.5871 16.6099L25.5848 16.5569L25.58 16.5039L25.5776 16.4509L25.5729 16.4003L25.5681 16.3473L25.5634 16.2943L25.5586 16.2413L25.5539 16.1907C25.5332 15.9808 25.5039 15.7718 25.4661 15.5643V15.5547V15.5523ZM7.7502 20.8425C8.00618 21.4379 8.32114 22.0053 8.69024 22.5361H8.69261L10.2902 22.1795L10.3234 22.1362H10.2854L11.2777 20.8257L7.7502 20.8425ZM21.7154 20.8931L22.4845 22.1916L23.9207 22.5192L23.9326 22.5048C24.1543 22.1895 24.3549 21.8595 24.5332 21.5171C24.6308 21.3301 24.7218 21.1396 24.8061 20.9461L21.7154 20.8931Z" fill="white"/>
<path d="M17.9838 14.4008L15.2751 17.5397L14.036 16.9857L10.0052 22.2422H10.3566L14.1262 17.347L15.3535 17.8987L17.9409 14.8995C19.3747 17.3735 20.9201 19.7536 22.3254 22.2446H22.6767L17.9838 14.4008Z" fill="white"/>
<path d="M17.9339 15.3403L15.4177 18.2673L14.1904 17.7493L10.7151 22.2398H11.0997L14.2806 18.1083L15.5008 18.6214L17.8912 15.839L21.6513 22.2518L22.0217 22.2446L17.9339 15.3403Z" fill="white"/>
<path d="M11.4724 22.2375L14.3756 18.4818L15.6194 18.9949L17.8769 16.3643L21.2668 22.2423L11.4724 22.2375Z" fill="white"/>
<path d="M42.0493 11.1797V19H41.0127V11.1797H42.0493Z" fill="white"/>
<path d="M43.9346 11.1797H46.5234C47.1107 11.1797 47.6066 11.2692 48.0112 11.4482C48.4194 11.6273 48.7292 11.8923 48.9404 12.2432C49.1553 12.5905 49.2627 13.0184 49.2627 13.5269C49.2627 13.8849 49.1893 14.2126 49.0425 14.5098C48.8993 14.8034 48.6916 15.054 48.4194 15.2617C48.1509 15.4658 47.8286 15.618 47.4526 15.7183L47.1626 15.8311H44.7295L44.7188 14.9878H46.5557C46.9281 14.9878 47.2378 14.9233 47.4849 14.7944C47.7319 14.6619 47.9181 14.4847 48.0435 14.2627C48.1688 14.0407 48.2314 13.7954 48.2314 13.5269C48.2314 13.2261 48.1724 12.9629 48.0542 12.7373C47.936 12.5117 47.7498 12.3381 47.4956 12.2163C47.245 12.091 46.9209 12.0283 46.5234 12.0283H44.9712V19H43.9346V11.1797ZM48.5054 19L46.604 15.4551L47.6836 15.4497L49.6118 18.9355V19H48.5054Z" fill="white"/>
<path d="M55.4341 16.5132H56.4653C56.4116 17.0073 56.2702 17.4495 56.041 17.8398C55.8118 18.2301 55.4878 18.5399 55.0688 18.769C54.6499 18.9946 54.1271 19.1074 53.5005 19.1074C53.0422 19.1074 52.625 19.0215 52.249 18.8496C51.8766 18.6777 51.5562 18.4342 51.2876 18.1191C51.019 17.8005 50.8114 17.4191 50.6646 16.9751C50.5213 16.5275 50.4497 16.0298 50.4497 15.4819V14.7031C50.4497 14.1553 50.5213 13.6593 50.6646 13.2153C50.8114 12.7677 51.0208 12.3846 51.293 12.0659C51.5687 11.7472 51.8999 11.502 52.2866 11.3301C52.6733 11.1582 53.1084 11.0723 53.5918 11.0723C54.1826 11.0723 54.6821 11.1833 55.0903 11.4053C55.4985 11.6273 55.8154 11.9352 56.041 12.3291C56.2702 12.7194 56.4116 13.1724 56.4653 13.688H55.4341C55.384 13.3228 55.2909 13.0094 55.1548 12.748C55.0187 12.4831 54.8254 12.279 54.5747 12.1357C54.3241 11.9925 53.9964 11.9209 53.5918 11.9209C53.2445 11.9209 52.9383 11.9871 52.6733 12.1196C52.4119 12.2521 52.1917 12.4401 52.0127 12.6836C51.8372 12.9271 51.7048 13.2189 51.6152 13.5591C51.5257 13.8993 51.481 14.277 51.481 14.6924V15.4819C51.481 15.8651 51.5203 16.2249 51.5991 16.5615C51.6815 16.8981 51.805 17.1935 51.9697 17.4478C52.1344 17.702 52.3439 17.9025 52.5981 18.0493C52.8524 18.1925 53.1532 18.2642 53.5005 18.2642C53.9409 18.2642 54.2918 18.1943 54.5532 18.0547C54.8146 17.915 55.0116 17.7145 55.144 17.4531C55.2801 17.1917 55.3768 16.8784 55.4341 16.5132Z" fill="white"/>
</svg>
