<svg width="77" height="30" viewBox="0 0 77 30" fill="none" xmlns="http://www.w3.org/2000/svg">
<path d="M77 3C77 1.34315 75.6569 0 74 0H3C1.34315 0 0 1.34315 0 3V27C0 28.6569 1.34315 30 3 30H74C75.6569 30 77 28.6569 77 27V3Z" fill="#025E3E"/>
<path d="M7.47475 6.414V23.5877H8.71056V24.0011H7V6.00113H8.71056V6.41456L7.47475 6.414ZM12.7572 11.8573V12.7275H12.7803C12.9964 12.4094 13.283 12.1455 13.6178 11.9563C13.9435 11.7746 14.3215 11.6841 14.7428 11.6841C15.1473 11.6841 15.5191 11.7634 15.8537 11.9186C16.1907 12.0767 16.4427 12.3551 16.6182 12.7506C16.8089 12.4693 17.0699 12.2201 17.3944 12.0064C17.7201 11.7926 18.1071 11.6841 18.5549 11.6841C18.8737 11.6808 19.1914 11.7233 19.4982 11.8101C19.7912 11.8916 20.0376 12.0238 20.2452 12.2055C20.4505 12.3906 20.6114 12.6279 20.7289 12.921C20.8431 13.2135 20.9016 13.5684 20.9016 13.9847V18.2794H19.1416V14.6411C19.1421 14.4376 19.1331 14.2341 19.1146 14.0314C19.1038 13.859 19.0581 13.6905 18.9801 13.5364C18.9067 13.3947 18.7922 13.2784 18.6516 13.2028C18.5082 13.1173 18.3091 13.0768 18.0627 13.0768C17.8135 13.0768 17.6144 13.1235 17.4619 13.2169C17.3125 13.3099 17.1887 13.4389 17.1019 13.5921C17.0118 13.7534 16.953 13.9303 16.9287 14.1135C16.9003 14.3088 16.8847 14.5057 16.882 14.703V18.2799H15.1208V14.6794C15.1208 14.4887 15.118 14.3014 15.1067 14.1169C15.1016 13.94 15.0649 13.7655 14.9982 13.6016C14.9395 13.4447 14.8302 13.3117 14.6877 13.2236C14.5442 13.1297 14.3299 13.0802 14.0487 13.0802C13.9638 13.0802 13.8529 13.0976 13.7179 13.1359C13.5829 13.1736 13.4485 13.2439 13.3225 13.3468C13.18 13.4696 13.0668 13.6228 12.9912 13.7951C12.9006 13.9881 12.8567 14.2429 12.8567 14.5596V18.2833H11.0956V11.859L12.7572 11.8573ZM24.5253 23.5871V6.41344H23.2894V6H25V24H23.2894V23.5866L24.5253 23.5871Z" fill="white"/>
<path d="M34 0H32V30H34V0Z" fill="black" fill-opacity="0.1"/>
<path d="M41.2129 11.1797H42.2173L44.7793 17.5552L47.3359 11.1797H48.3457L45.166 19H44.3818L41.2129 11.1797ZM40.8853 11.1797H41.7715L41.9165 15.9492V19H40.8853V11.1797ZM47.7817 11.1797H48.668V19H47.6367V15.9492L47.7817 11.1797Z" fill="white"/>
<path d="M53.7651 18.0063V15.0146C53.7651 14.7855 53.7186 14.5868 53.6255 14.4185C53.536 14.2466 53.3999 14.1141 53.2173 14.021C53.0347 13.9279 52.8091 13.8813 52.5405 13.8813C52.2899 13.8813 52.0697 13.9243 51.8799 14.0103C51.6937 14.0962 51.5469 14.209 51.4395 14.3486C51.3356 14.4883 51.2837 14.6387 51.2837 14.7998H50.29C50.29 14.5921 50.3438 14.3862 50.4512 14.1821C50.5586 13.978 50.7126 13.7936 50.9131 13.6289C51.1172 13.4606 51.3607 13.3281 51.6436 13.2314C51.93 13.1312 52.2487 13.0811 52.5996 13.0811C53.0221 13.0811 53.3945 13.1527 53.7168 13.2959C54.0426 13.4391 54.2969 13.6558 54.4795 13.9458C54.6657 14.2323 54.7588 14.5921 54.7588 15.0254V17.7324C54.7588 17.9258 54.7749 18.1317 54.8071 18.3501C54.8429 18.5685 54.8949 18.7565 54.9629 18.9141V19H53.9263C53.8761 18.8854 53.8368 18.7332 53.8081 18.5435C53.7795 18.3501 53.7651 18.1711 53.7651 18.0063ZM53.937 15.4766L53.9478 16.1748H52.9434C52.6605 16.1748 52.408 16.1981 52.186 16.2446C51.964 16.2876 51.7778 16.3538 51.6274 16.4434C51.4771 16.5329 51.3625 16.6457 51.2837 16.7817C51.2049 16.9142 51.1655 17.07 51.1655 17.249C51.1655 17.4316 51.2067 17.5981 51.2891 17.7485C51.3714 17.8989 51.495 18.0189 51.6597 18.1084C51.828 18.1943 52.0339 18.2373 52.2773 18.2373C52.5817 18.2373 52.8503 18.1729 53.083 18.0439C53.3158 17.915 53.5002 17.7575 53.6362 17.5713C53.7759 17.3851 53.8511 17.2043 53.8618 17.0288L54.2861 17.5068C54.2611 17.6572 54.193 17.8237 54.082 18.0063C53.971 18.189 53.8224 18.3644 53.6362 18.5327C53.4536 18.6974 53.2352 18.8353 52.981 18.9463C52.7303 19.0537 52.4474 19.1074 52.1323 19.1074C51.7384 19.1074 51.3929 19.0304 51.0957 18.8765C50.8021 18.7225 50.5729 18.5166 50.4082 18.2588C50.2471 17.9974 50.1665 17.7056 50.1665 17.3833C50.1665 17.0718 50.2274 16.7979 50.3491 16.5615C50.4709 16.3216 50.6463 16.1229 50.8755 15.9653C51.1047 15.8042 51.3804 15.6825 51.7026 15.6001C52.0249 15.5177 52.3848 15.4766 52.7822 15.4766H53.937Z" fill="white"/>
<path d="M58.7549 13.1885V13.9512H55.6128V13.1885H58.7549ZM56.6763 11.7759H57.6699V17.5605C57.6699 17.7575 57.7004 17.9061 57.7612 18.0063C57.8221 18.1066 57.9009 18.1729 57.9976 18.2051C58.0942 18.2373 58.1981 18.2534 58.3091 18.2534C58.3914 18.2534 58.4774 18.2463 58.5669 18.2319C58.66 18.214 58.7298 18.1997 58.7764 18.189L58.7817 19C58.703 19.0251 58.5991 19.0483 58.4702 19.0698C58.3449 19.0949 58.1927 19.1074 58.0137 19.1074C57.7702 19.1074 57.5464 19.0591 57.3423 18.9624C57.1382 18.8657 56.9753 18.7046 56.8535 18.479C56.7354 18.2498 56.6763 17.9419 56.6763 17.5552V11.7759Z" fill="white"/>
<path d="M60.9141 14.1016V19H59.9204V13.1885H60.8872L60.9141 14.1016ZM62.7295 13.1562L62.7241 14.0801C62.6418 14.0622 62.563 14.0514 62.4878 14.0479C62.4162 14.0407 62.3338 14.0371 62.2407 14.0371C62.0116 14.0371 61.8092 14.0729 61.6338 14.1445C61.4583 14.2161 61.3097 14.3164 61.188 14.4453C61.0662 14.5742 60.9696 14.7282 60.8979 14.9072C60.8299 15.0827 60.7852 15.276 60.7637 15.4873L60.4844 15.6484C60.4844 15.2975 60.5184 14.9681 60.5864 14.6602C60.658 14.3522 60.7673 14.0801 60.9141 13.8438C61.0609 13.6038 61.2471 13.4176 61.4727 13.2852C61.7018 13.1491 61.974 13.0811 62.2891 13.0811C62.3607 13.0811 62.443 13.09 62.5361 13.1079C62.6292 13.1222 62.6937 13.1383 62.7295 13.1562Z" fill="white"/>
<path d="M64.7275 13.1885V19H63.7285V13.1885H64.7275ZM63.6533 11.647C63.6533 11.4858 63.7017 11.3498 63.7983 11.2388C63.8986 11.1278 64.0454 11.0723 64.2388 11.0723C64.4285 11.0723 64.5736 11.1278 64.6738 11.2388C64.7777 11.3498 64.8296 11.4858 64.8296 11.647C64.8296 11.8009 64.7777 11.9334 64.6738 12.0444C64.5736 12.1519 64.4285 12.2056 64.2388 12.2056C64.0454 12.2056 63.8986 12.1519 63.7983 12.0444C63.7017 11.9334 63.6533 11.8009 63.6533 11.647Z" fill="white"/>
<path d="M66.9941 13.1885L68.2671 15.3047L69.5562 13.1885H70.7217L68.8203 16.0566L70.7808 19H69.6313L68.2886 16.8193L66.9458 19H65.791L67.7461 16.0566L65.8501 13.1885H66.9941Z" fill="white"/>
</svg>
