<svg width="95" height="30" viewBox="0 0 95 30" fill="none" xmlns="http://www.w3.org/2000/svg">
<path d="M95 3C95 1.34315 93.6569 0 92 0H3C1.34315 0 0 1.34315 0 3V27C0 28.6569 1.34315 30 3 30H92C93.6569 30 95 28.6569 95 27V3Z" fill="#025E3E"/>
<path d="M34 0H32V30H34V0Z" fill="black" fill-opacity="0.1"/>
<path d="M12 16.7554L13.6076 21.5513C13.6076 21.5513 13.8086 22 14.0239 22C14.239 22 17.4403 18.4106 17.4403 18.4106L21 11L12.0574 15.5174L12 16.7554Z" fill="#C8DAEA"/>
<path d="M14.2205 18L14.0038 21.5206C14.0038 21.5206 13.913 22.5993 14.6188 21.5206C15.3245 20.4418 16 19.61 16 19.61" fill="#A9C6D8"/>
<path d="M11.1797 17.1604L7.3404 15.9115C7.3404 15.9115 6.88156 15.7257 7.02931 15.3043C7.05972 15.2174 7.12108 15.1435 7.30461 15.0163C8.15529 14.4244 23.05 9.07968 23.05 9.07968C23.05 9.07968 23.4705 8.9382 23.7185 9.03229C23.7799 9.05126 23.8351 9.08615 23.8785 9.13341C23.922 9.18067 23.9521 9.23858 23.9657 9.30125C23.9925 9.41193 24.0037 9.5258 23.9989 9.63957C23.9978 9.73799 23.9859 9.82922 23.9768 9.97227C23.8861 11.4335 21.1714 22.3394 21.1714 22.3394C21.1714 22.3394 21.0089 22.9776 20.427 22.9995C20.284 23.004 20.1415 22.9799 20.0081 22.9283C19.8746 22.8768 19.753 22.7989 19.6502 22.6994C18.5083 21.7188 14.5612 19.0705 13.6891 18.4881C13.6695 18.4748 13.6528 18.4573 13.6405 18.437C13.6281 18.4167 13.6203 18.394 13.6175 18.3704C13.6053 18.309 13.6721 18.233 13.6721 18.233C13.6721 18.233 20.545 12.134 20.7279 11.4937C20.742 11.4441 20.6885 11.4196 20.6167 11.4414C20.1602 11.6091 12.247 16.5981 11.3737 17.1486C11.3108 17.1676 11.2444 17.1716 11.1797 17.1604Z" fill="white"/>
<path d="M44.9541 11.1797V19H43.9336V11.1797H44.9541ZM47.4678 11.1797V12.0283H41.4253V11.1797H47.4678Z" fill="white"/>
<path d="M50.3521 19.1074C49.9474 19.1074 49.5804 19.0394 49.251 18.9033C48.9251 18.7637 48.644 18.5685 48.4077 18.3179C48.175 18.0672 47.9959 17.77 47.8706 17.4263C47.7453 17.0825 47.6826 16.7065 47.6826 16.2983V16.0728C47.6826 15.6001 47.7524 15.1794 47.8921 14.8105C48.0317 14.4382 48.2215 14.123 48.4614 13.8652C48.7013 13.6074 48.9735 13.4123 49.2778 13.2798C49.5822 13.1473 49.8973 13.0811 50.2231 13.0811C50.6385 13.0811 50.9966 13.1527 51.2974 13.2959C51.6017 13.4391 51.8506 13.6396 52.0439 13.8975C52.2373 14.1517 52.3805 14.4525 52.4736 14.7998C52.5667 15.1436 52.6133 15.5195 52.6133 15.9277V16.3735H48.2734V15.5625H51.6196V15.4873C51.6053 15.2295 51.5516 14.9788 51.4585 14.7354C51.369 14.4919 51.2257 14.2913 51.0288 14.1338C50.8319 13.9762 50.5633 13.8975 50.2231 13.8975C49.9976 13.8975 49.7899 13.9458 49.6001 14.0425C49.4103 14.1356 49.2474 14.2752 49.1113 14.4614C48.9753 14.6476 48.8696 14.875 48.7944 15.1436C48.7192 15.4121 48.6816 15.7218 48.6816 16.0728V16.2983C48.6816 16.5741 48.7192 16.8337 48.7944 17.0771C48.8732 17.3171 48.986 17.5283 49.1328 17.7109C49.2832 17.8936 49.464 18.0368 49.6753 18.1406C49.8901 18.2445 50.1336 18.2964 50.4058 18.2964C50.7567 18.2964 51.0539 18.2248 51.2974 18.0815C51.5409 17.9383 51.7539 17.7467 51.9365 17.5068L52.5381 17.9849C52.4128 18.1746 52.2534 18.3555 52.0601 18.5273C51.8667 18.6992 51.6286 18.8389 51.3457 18.9463C51.0664 19.0537 50.7352 19.1074 50.3521 19.1074Z" fill="white"/>
<path d="M54.853 10.75V19H53.854V10.75H54.853Z" fill="white"/>
<path d="M58.8599 19.1074C58.4552 19.1074 58.0882 19.0394 57.7588 18.9033C57.4329 18.7637 57.1519 18.5685 56.9155 18.3179C56.6828 18.0672 56.5037 17.77 56.3784 17.4263C56.2531 17.0825 56.1904 16.7065 56.1904 16.2983V16.0728C56.1904 15.6001 56.2603 15.1794 56.3999 14.8105C56.5396 14.4382 56.7293 14.123 56.9692 13.8652C57.2091 13.6074 57.4813 13.4123 57.7856 13.2798C58.09 13.1473 58.4051 13.0811 58.731 13.0811C59.1463 13.0811 59.5044 13.1527 59.8052 13.2959C60.1095 13.4391 60.3584 13.6396 60.5518 13.8975C60.7451 14.1517 60.8883 14.4525 60.9814 14.7998C61.0745 15.1436 61.1211 15.5195 61.1211 15.9277V16.3735H56.7812V15.5625H60.1274V15.4873C60.1131 15.2295 60.0594 14.9788 59.9663 14.7354C59.8768 14.4919 59.7336 14.2913 59.5366 14.1338C59.3397 13.9762 59.0711 13.8975 58.731 13.8975C58.5054 13.8975 58.2977 13.9458 58.1079 14.0425C57.9181 14.1356 57.7552 14.2752 57.6191 14.4614C57.4831 14.6476 57.3774 14.875 57.3022 15.1436C57.2271 15.4121 57.1895 15.7218 57.1895 16.0728V16.2983C57.1895 16.5741 57.2271 16.8337 57.3022 17.0771C57.381 17.3171 57.4938 17.5283 57.6406 17.7109C57.791 17.8936 57.9718 18.0368 58.1831 18.1406C58.3979 18.2445 58.6414 18.2964 58.9136 18.2964C59.2645 18.2964 59.5617 18.2248 59.8052 18.0815C60.0487 17.9383 60.2617 17.7467 60.4443 17.5068L61.0459 17.9849C60.9206 18.1746 60.7612 18.3555 60.5679 18.5273C60.3745 18.6992 60.1364 18.8389 59.8535 18.9463C59.5742 19.0537 59.243 19.1074 58.8599 19.1074Z" fill="white"/>
<path d="M66.0464 13.1885H66.9487V18.8765C66.9487 19.3885 66.8449 19.8254 66.6372 20.187C66.4295 20.5487 66.1395 20.8226 65.7671 21.0088C65.3983 21.1986 64.9722 21.2935 64.4888 21.2935C64.2882 21.2935 64.0519 21.2612 63.7798 21.1968C63.5112 21.1359 63.2463 21.0303 62.9849 20.8799C62.7271 20.7331 62.5104 20.5343 62.335 20.2837L62.856 19.6929C63.0994 19.9865 63.3537 20.1906 63.6187 20.3052C63.8872 20.4198 64.1522 20.4771 64.4136 20.4771C64.7287 20.4771 65.0008 20.418 65.23 20.2998C65.4591 20.1816 65.6364 20.0062 65.7617 19.7734C65.8906 19.5443 65.9551 19.2614 65.9551 18.9248V14.4668L66.0464 13.1885ZM62.0449 16.1587V16.0459C62.0449 15.6019 62.0968 15.1991 62.2007 14.8374C62.3081 14.4722 62.4603 14.1589 62.6572 13.8975C62.8577 13.6361 63.0994 13.4355 63.3823 13.2959C63.6652 13.1527 63.9839 13.0811 64.3384 13.0811C64.7036 13.0811 65.0223 13.1455 65.2944 13.2744C65.5701 13.3997 65.8029 13.5841 65.9927 13.8276C66.186 14.0675 66.3382 14.3576 66.4492 14.6978C66.5602 15.0379 66.6372 15.4229 66.6802 15.8525V16.3467C66.6408 16.7728 66.5638 17.1559 66.4492 17.4961C66.3382 17.8363 66.186 18.1263 65.9927 18.3662C65.8029 18.6061 65.5701 18.7905 65.2944 18.9194C65.0187 19.0448 64.6965 19.1074 64.3276 19.1074C63.9803 19.1074 63.6652 19.034 63.3823 18.8872C63.103 18.7404 62.8631 18.5345 62.6626 18.2695C62.4621 18.0046 62.3081 17.693 62.2007 17.335C62.0968 16.9733 62.0449 16.5812 62.0449 16.1587ZM63.0386 16.0459V16.1587C63.0386 16.4487 63.0672 16.7209 63.1245 16.9751C63.1854 17.2293 63.2767 17.4531 63.3984 17.6465C63.5238 17.8398 63.6831 17.992 63.8765 18.103C64.0698 18.2104 64.3008 18.2642 64.5693 18.2642C64.8988 18.2642 65.1709 18.1943 65.3857 18.0547C65.6006 17.915 65.7707 17.7306 65.896 17.5015C66.0249 17.2723 66.1252 17.0234 66.1968 16.7549V15.4604C66.1574 15.2635 66.0965 15.0737 66.0142 14.8911C65.9354 14.7049 65.8315 14.5402 65.7026 14.397C65.5773 14.2502 65.4215 14.1338 65.2354 14.0479C65.0492 13.9619 64.8307 13.9189 64.5801 13.9189C64.3079 13.9189 64.0734 13.9762 63.8765 14.0908C63.6831 14.2018 63.5238 14.3558 63.3984 14.5527C63.2767 14.7461 63.1854 14.9717 63.1245 15.2295C63.0672 15.4837 63.0386 15.7559 63.0386 16.0459Z" fill="white"/>
<path d="M69.4517 14.1016V19H68.458V13.1885H69.4248L69.4517 14.1016ZM71.2671 13.1562L71.2617 14.0801C71.1794 14.0622 71.1006 14.0514 71.0254 14.0479C70.9538 14.0407 70.8714 14.0371 70.7783 14.0371C70.5492 14.0371 70.3468 14.0729 70.1714 14.1445C69.9959 14.2161 69.8473 14.3164 69.7256 14.4453C69.6038 14.5742 69.5072 14.7282 69.4355 14.9072C69.3675 15.0827 69.3228 15.276 69.3013 15.4873L69.022 15.6484C69.022 15.2975 69.056 14.9681 69.124 14.6602C69.1956 14.3522 69.3049 14.0801 69.4517 13.8438C69.5985 13.6038 69.7847 13.4176 70.0103 13.2852C70.2394 13.1491 70.5116 13.0811 70.8267 13.0811C70.8983 13.0811 70.9806 13.09 71.0737 13.1079C71.1668 13.1222 71.2313 13.1383 71.2671 13.1562Z" fill="white"/>
<path d="M75.3975 18.0063V15.0146C75.3975 14.7855 75.3509 14.5868 75.2578 14.4185C75.1683 14.2466 75.0322 14.1141 74.8496 14.021C74.667 13.9279 74.4414 13.8813 74.1729 13.8813C73.9222 13.8813 73.702 13.9243 73.5122 14.0103C73.326 14.0962 73.1792 14.209 73.0718 14.3486C72.9679 14.4883 72.916 14.6387 72.916 14.7998H71.9224C71.9224 14.5921 71.9761 14.3862 72.0835 14.1821C72.1909 13.978 72.3449 13.7936 72.5454 13.6289C72.7495 13.4606 72.993 13.3281 73.2759 13.2314C73.5623 13.1312 73.881 13.0811 74.2319 13.0811C74.6545 13.0811 75.0269 13.1527 75.3491 13.2959C75.675 13.4391 75.9292 13.6558 76.1118 13.9458C76.298 14.2323 76.3911 14.5921 76.3911 15.0254V17.7324C76.3911 17.9258 76.4072 18.1317 76.4395 18.3501C76.4753 18.5685 76.5272 18.7565 76.5952 18.9141V19H75.5586C75.5085 18.8854 75.4691 18.7332 75.4404 18.5435C75.4118 18.3501 75.3975 18.1711 75.3975 18.0063ZM75.5693 15.4766L75.5801 16.1748H74.5757C74.2928 16.1748 74.0404 16.1981 73.8184 16.2446C73.5964 16.2876 73.4102 16.3538 73.2598 16.4434C73.1094 16.5329 72.9948 16.6457 72.916 16.7817C72.8372 16.9142 72.7979 17.07 72.7979 17.249C72.7979 17.4316 72.839 17.5981 72.9214 17.7485C73.0037 17.8989 73.1273 18.0189 73.292 18.1084C73.4603 18.1943 73.6662 18.2373 73.9097 18.2373C74.214 18.2373 74.4826 18.1729 74.7153 18.0439C74.9481 17.915 75.1325 17.7575 75.2686 17.5713C75.4082 17.3851 75.4834 17.2043 75.4941 17.0288L75.9185 17.5068C75.8934 17.6572 75.8254 17.8237 75.7144 18.0063C75.6034 18.189 75.4548 18.3644 75.2686 18.5327C75.0859 18.6974 74.8675 18.8353 74.6133 18.9463C74.3626 19.0537 74.0798 19.1074 73.7646 19.1074C73.3708 19.1074 73.0252 19.0304 72.728 18.8765C72.4344 18.7225 72.2052 18.5166 72.0405 18.2588C71.8794 17.9974 71.7988 17.7056 71.7988 17.3833C71.7988 17.0718 71.8597 16.7979 71.9814 16.5615C72.1032 16.3216 72.2786 16.1229 72.5078 15.9653C72.737 15.8042 73.0127 15.6825 73.335 15.6001C73.6572 15.5177 74.0171 15.4766 74.4146 15.4766H75.5693Z" fill="white"/>
<path d="M78.9424 14.3433V19H77.9434V13.1885H78.8887L78.9424 14.3433ZM78.7383 15.874L78.2764 15.8579C78.2799 15.4604 78.3319 15.0934 78.4321 14.7568C78.5324 14.4167 78.681 14.1213 78.8779 13.8706C79.0749 13.62 79.3201 13.4266 79.6138 13.2905C79.9074 13.1509 80.2476 13.0811 80.6343 13.0811C80.9064 13.0811 81.1571 13.1204 81.3862 13.1992C81.6154 13.2744 81.8141 13.3944 81.9824 13.5591C82.1507 13.7238 82.2814 13.9351 82.3745 14.1929C82.4676 14.4507 82.5142 14.7622 82.5142 15.1274V19H81.5205V15.1758C81.5205 14.8714 81.4686 14.6279 81.3647 14.4453C81.2645 14.2627 81.1213 14.1302 80.9351 14.0479C80.7489 13.9619 80.5304 13.9189 80.2798 13.9189C79.9862 13.9189 79.7409 13.9709 79.5439 14.0747C79.347 14.1785 79.1895 14.3218 79.0713 14.5044C78.9531 14.687 78.8672 14.8965 78.8135 15.1328C78.7633 15.3656 78.7383 15.6126 78.7383 15.874ZM82.5034 15.3262L81.8374 15.5303C81.841 15.2116 81.8929 14.9054 81.9932 14.6118C82.097 14.3182 82.2456 14.0568 82.439 13.8276C82.6359 13.5985 82.8776 13.4176 83.1641 13.2852C83.4505 13.1491 83.7782 13.0811 84.147 13.0811C84.4585 13.0811 84.7342 13.1222 84.9741 13.2046C85.2176 13.2869 85.4217 13.4141 85.5864 13.5859C85.7547 13.7542 85.8818 13.9709 85.9678 14.2358C86.0537 14.5008 86.0967 14.8159 86.0967 15.1812V19H85.0977V15.1704C85.0977 14.8446 85.0457 14.5921 84.9419 14.4131C84.8416 14.2305 84.6984 14.1034 84.5122 14.0317C84.3296 13.9565 84.1112 13.9189 83.8569 13.9189C83.6385 13.9189 83.4451 13.9565 83.2769 14.0317C83.1086 14.1069 82.9671 14.2108 82.8525 14.3433C82.738 14.4722 82.6502 14.6208 82.5894 14.7891C82.5321 14.9574 82.5034 15.1364 82.5034 15.3262Z" fill="white"/>
</svg>
