<svg width="76" height="30" viewBox="0 0 76 30" fill="none" xmlns="http://www.w3.org/2000/svg">
<path d="M76 3C76 1.34315 74.6569 0 73 0H3C1.34315 0 0 1.34315 0 3V27C0 28.6569 1.34315 30 3 30H73C74.6569 30 76 28.6569 76 27V3Z" fill="#025E3E"/>
<path d="M34 0H32V30H34V0Z" fill="black" fill-opacity="0.1"/>
<path d="M26 8C25.8888 11.2456 24.0068 14.5796 21.3414 17.1873C18.6699 19.801 15.22 21.6765 12 22V21.922C14.45 21.2734 16.9286 19.3165 18.7971 16.9891C20.6753 14.6496 21.947 11.9232 21.947 9.75524C21.947 9.73383 21.9534 9.72246 21.9627 9.71287C21.9747 9.70049 21.9919 9.69057 22.0184 9.67607L22.0207 9.67485C22.0437 9.66225 22.0751 9.64496 22.0992 9.61887C22.1192 9.59724 22.1333 9.57082 22.1387 9.53859L26 8Z" fill="url(#paint0_linear_7_189)" stroke="black" stroke-opacity="0.1" stroke-width="0.1"/>
<path d="M20.6817 10.3676C20.6817 10.2314 20.6775 10.0964 20.6703 9.9619L23.9647 9C23.9879 9.23892 24 9.48022 24 9.72355C24 12.3144 22.6692 15.3067 20.4925 17.6916C18.3293 20.0617 15.337 21.8252 12 22V21.9182C14.5814 21.263 16.7466 19.4724 18.2683 17.3048C19.7981 15.1253 20.6817 12.5585 20.6817 10.3676Z" fill="white" stroke="black" stroke-opacity="0.1" stroke-width="0.1"/>
<path d="M23.9601 9C24.2334 11.5237 23.0877 14.6044 20.9521 17.1407C18.8097 19.6853 15.6773 21.6741 12 22V21.9216C12.0619 21.9065 12.1263 21.8909 12.1924 21.875C12.528 21.794 12.9046 21.7031 13.2043 21.605C16.0729 21.1029 18.572 19.2532 20.3532 16.9559C22.1349 14.6579 23.2039 11.9046 23.2039 9.58798C23.2039 9.49216 23.2017 9.36864 23.1979 9.26657L23.9601 9Z" fill="white" stroke="black" stroke-opacity="0.1" stroke-width="0.1"/>
<path d="M21 21.9219V22C17.78 21.6765 14.3301 19.801 11.6586 17.1873C8.99324 14.5796 7.11128 11.2456 7 8L10.8613 9.53859C10.8667 9.57082 10.8808 9.59724 10.9008 9.61887C10.9249 9.64496 10.9563 9.66225 10.9793 9.67485L10.9816 9.67607C11.0081 9.69057 11.0253 9.70049 11.0373 9.71287C11.0466 9.72246 11.053 9.73383 11.053 9.75524C11.053 11.9232 12.3247 14.6496 14.2029 16.9891C16.0714 19.3165 18.55 21.2734 21 21.9219Z" fill="url(#paint1_linear_7_189)" stroke="black" stroke-opacity="0.1" stroke-width="0.1"/>
<path d="M10.0323 9L13.0522 9.9619C13.0456 10.0964 13.0418 10.2314 13.0418 10.3676C13.0418 12.5585 13.8517 15.1253 15.2541 17.3048C16.6489 19.4724 18.6338 21.263 21 21.9182V22C17.9411 21.8252 15.1982 20.0617 13.2152 17.6916C11.2199 15.3067 10 12.3144 10 9.72355C10 9.48022 10.0111 9.23892 10.0323 9Z" fill="white" stroke="black" stroke-opacity="0.1" stroke-width="0.1"/>
<path d="M21 21.9216V22C17.6293 21.6741 14.7578 19.6853 12.7939 17.1407C10.8362 14.6044 9.78614 11.5237 10.0365 9L10.7352 9.26657C10.7318 9.36864 10.7298 9.49216 10.7298 9.58798C10.7298 11.9046 11.7097 14.6578 13.3429 16.9559C14.9756 19.2532 17.2665 21.1029 19.896 21.605C20.1708 21.7031 20.5161 21.794 20.8238 21.875C20.8842 21.8909 20.9432 21.9065 21 21.9216Z" fill="white" stroke="black" stroke-opacity="0.1" stroke-width="0.1"/>
<path d="M41.8896 11.1797L43.7695 14.1768L45.6494 11.1797H46.8579L44.3872 15.0522L46.917 19H45.6978L43.7695 15.9438L41.8413 19H40.6221L43.1519 15.0522L40.6812 11.1797H41.8896Z" fill="white"/>
<path d="M48.4424 11.1797H49.4468L52.0088 17.5552L54.5654 11.1797H55.5752L52.3955 19H51.6113L48.4424 11.1797ZM48.1147 11.1797H49.001L49.146 15.9492V19H48.1147V11.1797ZM55.0112 11.1797H55.8975V19H54.8662V15.9492L55.0112 11.1797Z" fill="white"/>
<path d="M60.6025 15.9331H58.5132V15.0898H60.6025C61.0072 15.0898 61.3348 15.0254 61.5854 14.8965C61.8361 14.7676 62.0187 14.5885 62.1333 14.3594C62.2515 14.1302 62.3105 13.8688 62.3105 13.5752C62.3105 13.3066 62.2515 13.0542 62.1333 12.8179C62.0187 12.5815 61.8361 12.3918 61.5854 12.2485C61.3348 12.1017 61.0072 12.0283 60.6025 12.0283H58.7549V19H57.7183V11.1797H60.6025C61.1934 11.1797 61.6929 11.2817 62.1011 11.4858C62.5093 11.6899 62.819 11.9728 63.0303 12.3345C63.2415 12.6925 63.3472 13.1025 63.3472 13.5645C63.3472 14.0658 63.2415 14.4937 63.0303 14.8481C62.819 15.2026 62.5093 15.473 62.1011 15.6592C61.6929 15.8418 61.1934 15.9331 60.6025 15.9331Z" fill="white"/>
<path d="M67.542 15.9331H65.4526V15.0898H67.542C67.9466 15.0898 68.2743 15.0254 68.5249 14.8965C68.7756 14.7676 68.9582 14.5885 69.0728 14.3594C69.1909 14.1302 69.25 13.8688 69.25 13.5752C69.25 13.3066 69.1909 13.0542 69.0728 12.8179C68.9582 12.5815 68.7756 12.3918 68.5249 12.2485C68.2743 12.1017 67.9466 12.0283 67.542 12.0283H65.6943V19H64.6577V11.1797H67.542C68.1328 11.1797 68.6323 11.2817 69.0405 11.4858C69.4487 11.6899 69.7585 11.9728 69.9697 12.3345C70.181 12.6925 70.2866 13.1025 70.2866 13.5645C70.2866 14.0658 70.181 14.4937 69.9697 14.8481C69.7585 15.2026 69.4487 15.473 69.0405 15.6592C68.6323 15.8418 68.1328 15.9331 67.542 15.9331Z" fill="white"/>
<defs>
<linearGradient id="paint0_linear_7_189" x1="19.0055" y1="22.0612" x2="19.0055" y2="7.9175" gradientUnits="userSpaceOnUse">
<stop offset="0.011" stop-color="white"/>
<stop offset="0.467" stop-color="white"/>
<stop offset="0.9945" stop-color="white"/>
</linearGradient>
<linearGradient id="paint1_linear_7_189" x1="13.9945" y1="22.0612" x2="13.9945" y2="7.9175" gradientUnits="userSpaceOnUse">
<stop offset="0.011" stop-color="white"/>
<stop offset="0.467" stop-color="white"/>
<stop offset="0.9945" stop-color="white"/>
</linearGradient>
</defs>
</svg>
